<svg width="1159" height="109" viewBox="0 0 1159 109" fill="none" xmlns="http://www.w3.org/2000/svg">
<mask id="mask0_1340_2175" style="mask-type:alpha" maskUnits="userSpaceOnUse" x="0" y="0" width="1159" height="109">
<rect y="109" width="109" height="1159" rx="5" transform="rotate(-90 0 109)" fill="#4EB7B5"/>
</mask>
<g mask="url(#mask0_1340_2175)">
<path d="M245.333 92.8451C155.084 80.0432 63.761 104.684 29.3805 118.605L-5 144.755L759.966 151L876 130.314C847.35 121.077 769.85 99.0899 689.056 85.039C588.063 67.4755 541.865 92.8451 488.145 102.603C434.426 112.36 358.144 108.847 245.333 92.8451Z" fill="#94D0CF" fill-opacity="0.4"/>
<path d="M546.333 92.8451C456.084 80.0432 364.761 104.684 330.38 118.605L296 144.755L1060.97 151L1177 130.314C1148.35 121.077 1070.85 99.0899 990.056 85.039C889.063 67.4755 842.865 92.8451 789.145 102.603C735.426 112.36 659.144 108.847 546.333 92.8451Z" fill="#77CBC9"/>
</g>
</svg>
